<svg width="18" height="22" viewBox="0 0 18 22" fill="none" xmlns="http://www.w3.org/2000/svg">
<path fill-rule="evenodd" clip-rule="evenodd" d="M9 0.916809C11.3869 0.916809 13.6761 1.86502 15.364 3.55285C17.0518 5.24067 18 7.52986 18 9.91681C18 12.9908 16.324 15.5068 14.558 17.3118C13.6755 18.2037 12.7128 19.0124 11.682 19.7278L11.256 20.0178L11.056 20.1508L10.679 20.3908L10.343 20.5958L9.927 20.8378C9.64451 20.9986 9.32505 21.0831 9 21.0831C8.67495 21.0831 8.35549 20.9986 8.073 20.8378L7.657 20.5958L7.137 20.2758L6.945 20.1508L6.535 19.8778C5.42298 19.1251 4.38707 18.2657 3.442 17.3118C1.676 15.5058 0 12.9908 0 9.91681C0 7.52986 0.948211 5.24067 2.63604 3.55285C4.32387 1.86502 6.61305 0.916809 9 0.916809ZM9 2.91681C7.14348 2.91681 5.36301 3.65431 4.05025 4.96706C2.7375 6.27982 2 8.06029 2 9.91681C2 12.2388 3.272 14.2768 4.871 15.9128C5.55862 16.6087 6.30174 17.2475 7.093 17.8228L7.551 18.1488C7.699 18.2518 7.841 18.3478 7.978 18.4368L8.368 18.6868L8.711 18.8958L9 19.0648L9.455 18.7958L9.822 18.5658C10.017 18.4418 10.227 18.3028 10.449 18.1488L10.907 17.8228C11.6983 17.2475 12.4414 16.6087 13.129 15.9128C14.728 14.2778 16 12.2388 16 9.91681C16 8.06029 15.2625 6.27982 13.9497 4.96706C12.637 3.65431 10.8565 2.91681 9 2.91681ZM9 5.91681C10.0609 5.91681 11.0783 6.33824 11.8284 7.08838C12.5786 7.83853 13 8.85594 13 9.91681C13 10.9777 12.5786 11.9951 11.8284 12.7452C11.0783 13.4954 10.0609 13.9168 9 13.9168C7.93913 13.9168 6.92172 13.4954 6.17157 12.7452C5.42143 11.9951 5 10.9777 5 9.91681C5 8.85594 5.42143 7.83853 6.17157 7.08838C6.92172 6.33824 7.93913 5.91681 9 5.91681ZM9 7.91681C8.46957 7.91681 7.96086 8.12752 7.58579 8.5026C7.21071 8.87767 7 9.38638 7 9.91681C7 10.4472 7.21071 10.9559 7.58579 11.331C7.96086 11.7061 8.46957 11.9168 9 11.9168C9.53043 11.9168 10.0391 11.7061 10.4142 11.331C10.7893 10.9559 11 10.4472 11 9.91681C11 9.38638 10.7893 8.87767 10.4142 8.5026C10.0391 8.12752 9.53043 7.91681 9 7.91681Z" fill="#FFFEFB"/>
</svg>
